<svg width="213" height="213" viewBox="0 0 213 213" fill="none" xmlns="http://www.w3.org/2000/svg">
<path d="M46 75.9304C46 109.285 72.9804 136.393 106.441 136.393V75.9304H46V75.9304Z" fill="#2196F3"/>
<path d="M46 136.274C46 169.629 72.9804 196.737 106.441 196.737V136.274H46Z" fill="#0728FF"/>
<path d="M106.559 75.9304C139.902 75.9304 167 102.92 167 136.393H106.559V75.9304Z" fill="#0728FF"/>
<path d="M167 136.274C167 169.629 140.02 196.737 106.559 196.737V136.274H167Z" fill="#00C5EC"/>
<path d="M167 77.4623C167 44.1079 140.02 17 106.559 17V77.4623H167Z" fill="#0728FF"/>
<path d="M46 77.4623C46 44.1079 72.9804 17 106.441 17V77.4623H46Z" fill="#00C5EC"/>
</svg>
